<svg preserveAspectRatio="xMinYMin meet" viewBox="0 0 846 350" xmlns="http://www.w3.org/2000/svg"><svg width="846" height="350" aria-label="XYChart"><defs><linearGradient id="area-gradient" x1="0" y1="0" x2="0" y2="1"><stop offset="0%" stop-color="#EF5350" stop-opacity="1"></stop><stop offset="100%" stop-color="#EF5350" stop-opacity="0"></stop></linearGradient></defs><g class="visx-group visx-axis" transform="translate(0, 318)"><g class="visx-axis-tick"><g transform="translate(151.93941827562327,16)" opacity="1"><svg x="0" y="0.125em" font-size="12" style="overflow: visible;"><text transform="" font-family="-apple-system,BlinkMacSystemFont,Roboto,Helvetica Neue,sans-serif" font-weight="bold" font-size="12" pointer-events="none" letter-spacing="0" fill="#4A5568" stroke="none" text-anchor="middle"><tspan x="0" dy="0.355em">Nov 06</tspan></text></svg></g></g><g class="visx-axis-tick"><g transform="translate(348.79260387119115,16)" opacity="1"><svg x="0" y="0.125em" font-size="12" style="overflow: visible;"><text transform="" font-family="-apple-system,BlinkMacSystemFont,Roboto,Helvetica Neue,sans-serif" font-weight="bold" font-size="12" pointer-events="none" letter-spacing="0" fill="#4A5568" stroke="none" text-anchor="middle"><tspan x="0" dy="0.355em">Nov 13</tspan></text></svg></g></g><g class="visx-axis-tick"><g transform="translate(545.645789466759,16)" opacity="1"><svg x="0" y="0.125em" font-size="12" style="overflow: visible;"><text transform="" font-family="-apple-system,BlinkMacSystemFont,Roboto,Helvetica Neue,sans-serif" font-weight="bold" font-size="12" pointer-events="none" letter-spacing="0" fill="#4A5568" stroke="none" text-anchor="middle"><tspan x="0" dy="0.355em">Nov 20</tspan></text></svg></g></g><g class="visx-axis-tick"><g transform="translate(742.4989750623268,16)" opacity="1"><svg x="0" y="0.125em" font-size="12" style="overflow: visible;"><text transform="" font-family="-apple-system,BlinkMacSystemFont,Roboto,Helvetica Neue,sans-serif" font-weight="bold" font-size="12" pointer-events="none" letter-spacing="0" fill="#4A5568" stroke="none" text-anchor="middle"><tspan x="0" dy="0.355em">Nov 27</tspan></text></svg></g></g></g><path class="visx-area" d="M0,59.21484848484843L2.343490304709141,49.16295454545452L4.686980609418282,48L7.030470914127425,49.84359848484845L9.373961218836564,56.181249999999935L11.717451523545707,97.6193939393938L14.06094182825485,92.39511363636363L16.404432132963986,95.40617424242407L18.74792243767313,68.07223484848483L21.09141274238227,72.03439393939391L23.434903047091414,53.936477272727316L25.778393351800556,87.21140151515141L28.1218836565097,85.66079545454554L30.465373961218837,94.23420454545439L32.80886426592797,81.21632575757567L35.152354570637115,82.3928030303029L37.49584487534626,81.08109848484841L39.8393351800554,76.29405303030305L42.18282548476454,84.10117424242421L44.526315789473685,81.49579545454543L46.86980609418283,83.69549242424236L49.21329639889197,90.45234848484833L51.55678670360111,98.86799242424237L53.900277008310255,99.73795454545453L56.2437673130194,103.73617424242417L58.58725761772854,101.8339772727272L60.930747922437675,103.36655303030298L63.27423822714681,107.26560606060596L65.61772853185595,114.65352272727267L67.9612188365651,113.54015151515154L70.30470914127423,103.22681818181819L72.64819944598338,98.89954545454549L74.99168975069252,99.85515151515149L77.33518005540166,103.41162878787881L79.6786703601108,96.03272727272713L82.02216066481995,106.85992424242433L84.36565096952909,108.0724621212121L86.70914127423823,101.9466666666666L89.05263157894737,104.56556818181807L91.3961218836565,107.41435606060614L93.73961218836565,106.90049242424237L96.08310249307479,118.56159090909088L98.42659279778394,125.29140151515142L100.77008310249307,117.73670454545446L103.11357340720222,110.87166666666667L105.45706371191136,105.3273484848484L107.80055401662051,110.69587121212119L110.14404432132964,108.48715909090902L112.4875346260388,99.81007575757577L114.83102493074793,95.19882575757578L117.17451523545708,96.2941666666666L119.51800554016621,91.38541666666654L121.86149584487535,87.79738636363635L124.2049861495845,87.3285984848485L126.54847645429362,84.44374999999997L128.89196675900277,87.79738636363635L131.2354570637119,78.33147727272735L133.57894736842104,75.99655303030289L135.9224376731302,83.77212121212119L138.26592797783934,82.3296969696969L140.60941828254846,82.66325757575763L142.9529085872576,82.57310606060608L145.29639889196676,78.83181818181822L147.6398891966759,86.26481060606055L149.98337950138503,88.16250000000007L152.32686980609418,92.95856060606062L154.67036011080333,97.98901515151519L157.01385041551248,93.16140151515145L159.3573407202216,97.04242424242432L161.70083102493075,94.69848484848481L164.0443213296399,93.61666666666659L166.38781163434905,95.6901515151514L168.73130193905817,95.47829545454532L171.07479224376732,92.84136363636355L173.41828254847647,99.13393939393931L175.7617728531856,103.89393939393929L178.10526315789474,102.64083333333323L180.44875346260386,117.59246212121207L182.792243767313,116.5962878787879L185.13573407202216,111.99405303030292L187.4792243767313,110.60121212121209L189.82271468144043,117.47526515151509L192.16620498614958,124.65583333333339L194.50969529085873,117.48428030303035L196.85318559556788,122.49670454545443L199.196675900277,121.89268939393934L201.54016620498615,119.67946969696969L203.8836565096953,110.71840909090912L206.22714681440445,119.85075757575763L208.57063711911357,125.6610227272727L210.91412742382272,126.24249999999998L213.25761772853184,143.9257196969698L215.60110803324102,164.65155303030303L217.9445983379501,156.43874999999997L220.2880886426593,156.8354166666666L222.6315789473684,161.02295454545447L224.9750692520776,161.56837121212115L227.31855955678668,168.5956818181818L229.66204986149586,156.42522727272723L232.00554016620498,212.59412878787873L234.34903047091416,207.8341287878788L236.69252077562325,211.61147727272734L239.03601108033243,215.83056818181817L241.37950138504155,219.45916666666662L243.7229916897507,213.5812878787878L246.06648199445982,217.86799242424246L248.409972299169,242.10522727272726L250.75346260387812,233.92397727272723L253.09695290858724,230.7867045454545L255.4404432132964,245.68424242424243L257.78393351800554,252.80170454545456L260.12742382271466,254.0367803030303L262.4709141274238,284.2195075757576L264.81440443213296,286L267.1578947368421,272.33303030303034L269.50138504155126,262.2090151515152L271.8448753462604,253.02257575757574L274.18836565096956,248.97026515151506L276.5318559556787,247.33852272727273L278.8753462603878,252.21121212121216L281.2188365650969,213.0403787878787L283.5623268698061,215.01920454545441L285.9058171745152,227.46011363636364L288.2493074792244,222.3890909090909L290.5927977839335,214.75325757575752L292.9362880886427,217.0160606060605L295.2797783933518,219.84681818181812L297.62326869806094,229.89420454545444L299.96675900277006,221.75803030303027L302.3102493074792,211.625L304.65373961218836,210.5521969696969L306.9972299168975,210.1645454545455L309.34072022160666,208.67253787878784L311.6842105263158,205.8958712121212L314.02770083102496,204.71488636363637L316.3711911357341,202.97496212121212L318.7146814404432,170.2409469696969L321.0581717451523,152.9859469696969L323.4016620498615,162.82598484848484L325.7451523545706,188.7535606060606L328.0886426592798,214.7487499999999L330.4321329639889,200.14420454545444L332.7756232686981,199.19310606060606L335.1191135734072,189.47477272727275L337.46260387811634,200.19378787878782L339.80609418282546,196.63280303030305L342.14958448753464,202.2988257575757L344.49307479224376,203.90803030303024L346.83656509695294,200.9330303030303L349.18005540166206,208.4922348484848L351.5235457063712,200.45522727272723L353.86703601108036,199.81064393939394L356.2105263157895,205.82825757575756L358.5540166204986,217.45780303030295L360.8975069252077,227.5908333333333L363.2409972299169,220.05867424242416L365.584487534626,222.06905303030297L367.9279778393352,223.0201515151515L370.2714681440443,225.86443181818174L372.6149584487535,227.42405303030307L374.9584487534626,236.13719696969693L377.30193905817174,236.083106060606L379.64542936288086,246.96439393939391L381.98891966759004,243.8812121212121L384.33240997229916,250.8003409090909L386.67590027700834,216.94393939393944L389.01939058171746,216.81772727272713L391.36288088642664,217.82291666666669L393.70637119113576,212.8690909090909L396.0498614958449,223.83602272727268L398.393351800554,223.65121212121198L400.7368421052631,224.42200757575762L403.0803324099723,225.81034090909088L405.4238227146814,221.05935606060604L407.7673130193906,216.39401515151508L410.1108033240997,216.86280303030298L412.4542936288089,221.84818181818179L414.79778393351796,218.10238636363633L417.14127423822714,217.04761363636356L419.48476454293626,217.87249999999992L421.82825484764544,213.0854545454545L424.17174515235456,212.32367424242426L426.5152354570637,213.98246212121208L428.8587257617729,220.86553030303028L431.20221606648204,221.3027651515152L433.5457063711911,221.22613636363636L435.8891966759002,220.27503787878783L438.23268698060946,216.4210606060606L440.5761772853186,217.8589772727272L442.9196675900277,217.23693181818186L445.2631578947368,225.11617424242417L447.60664819944606,227.2482575757576L449.9501385041552,231.2870454545454L452.29362880886424,236.52935606060603L454.63711911357336,233.96454545454534L456.9806094182825,235.71799242424242L459.3240997229917,235.67291666666668L461.66759002770084,233.013446969697L464.01108033240996,230.76867424242425L466.3545706371191,234.1087878787878L468.6980609418283,233.6670454545454L471.0415512465374,234.95621212121208L473.3850415512465,238.7335606060606L475.7285318559556,236.3986363636363L478.07202216066486,242.1953787878787L480.415512465374,239.19333333333327L482.7590027700831,237.87261363636352L485.1024930747922,237.8590909090909L487.4459833795014,237.3271969696969L489.7894736842105,240.13541666666663L492.13296398891964,236.36257575757574L494.47645429362876,233.73916666666662L496.819944598338,234.36121212121205L499.1634349030471,235.956893939394L501.50692520775624,232.88272727272727L503.85041551246536,232.66636363636363L506.1939058171745,232.66636363636363L508.53739612188366,235.190606060606L510.8808864265928,238.96795454545452L513.224376731302,236.10113636363624L515.5678670360111,235.0598863636363L517.9113573407202,232.6798863636363L520.2548476454293,234.65420454545455L522.5983379501384,234.96522727272722L524.9418282548476,237.34973484848481L527.2853185595568,236.8493939393939L529.6288088642659,235.76757575757568L531.972299168975,236.98011363636363L534.3157894736842,236.2724242424243L536.6592797783934,235.07791666666668L539.0027700831025,233.9465151515151L541.3462603878116,235.22666666666663L543.6897506925208,233.00443181818179L546.03324099723,232.7339772727273L548.3767313019391,233.9375L550.7202216066482,234.0456818181818L553.0637119113574,232.6167803030303L555.4072022160665,233.12162878787882L557.7506925207756,236.47977272727266L560.0941828254847,243.95784090909086L562.4376731301938,243.66484848484845L564.781163434903,243.83613636363634L567.1246537396122,245.13882575757572L569.4681440443213,244.90443181818182L571.8116343490304,253.8925378787878L574.1551246537396,258.27840909090907L576.4986149584488,262.62821969696967L578.8421052631579,268.9207954545453L581.185595567867,266.0179166666667L583.5290858725762,267.7217803030302L585.8725761772854,263.6289015151514L588.2160664819945,264.3501136363636L590.5595567867036,261.636553030303L592.9030470914128,267.70825757575756L595.2465373961219,267.56852272727264L597.590027700831,279.1665151515151L599.9335180055401,275.5469318181818L602.2770083102492,269.3985984848485L604.6204986149584,268.9298106060606L606.9639889196676,267.9606818181818L609.3074792243767,269.62848484848485L611.6509695290858,273.64924242424246L613.994459833795,279.44147727272724L616.3379501385042,276.78200757575746L618.6814404432133,263.0293939393939L621.0249307479224,259.73435606060605L623.3684210526316,262.9978409090909L625.7119113573408,260.892803030303L628.0554016620499,259.04469696969693L630.398891966759,261.582462121212L632.7423822714682,262.1368939393939L635.0858725761773,248.19045454545457L637.4293628808864,250.09715909090912L639.7728531855955,248.4654166666666L642.1163434903046,248.3031439393939L644.4598337950139,247.62700757575752L646.803324099723,253.5003787878788L649.1468144044321,252.8738257575757L651.4903047091412,255.1591666666667L653.8337950138504,251.7559469696969L656.1772853185596,251.89568181818186L658.5207756232687,249.45257575757572L660.8642659279778,244.3499999999999L663.207756232687,243.39890151515152L665.5512465373962,244.49875L667.8947368421053,243.52962121212116L670.2382271468144,246.36488636363634L672.5817174515236,248.1183333333333L674.9252077562327,247.71715909090904L677.2686980609418,246.64886363636356L679.6121883656509,246.74352272727265L681.95567867036,247.0815909090909L684.2991689750693,248.6727651515151L686.6426592797784,247.1356818181818L688.9861495844875,247.71715909090904L691.3296398891966,248.55556818181816L693.6731301939059,251.21954545454537L696.016620498615,248.15890151515146L698.3601108033241,248.10030303030305L700.7036011080332,236.88545454545454L703.0470914127424,239.27897727272716L705.3905817174516,238.65242424242425L707.7340720221607,236.08310606060607L710.0775623268698,235.97041666666667L712.421052631579,236.8764393939394L714.7645429362881,236.9395454545454L717.1080332409972,227.18515151515152L719.4515235457063,229.74094696969692L721.7950138504154,228.27147727272728L724.1385041551247,231.14731060606064L726.4819944598338,229.7860227272727L728.8254847645429,229.93928030303016L731.168975069252,228.63659090909087L733.5124653739613,232.49056818181816L735.8559556786704,231.26000000000002L738.1994459833795,233.7571969696969L740.5429362880886,232.41393939393942L742.8864265927979,236.13719696969693L745.229916897507,234.6947727272727L747.5734072022161,234.17189393939395L749.9168975069252,228.8980303030303L752.2603878116344,223.27708333333337L754.6038781163435,221.94734848484848L756.9473684210526,212.15689393939397L759.2908587257617,213.7976515151515L761.6343490304708,213.20715909090907L763.9778393351801,213.34238636363634L766.3213296398892,215.1048484848485L768.6648199445983,212.6932954545454L771.0083102493074,225.5804545454545L773.3518005540167,239.526893939394L775.6952908587258,238.9093560606061L778.0387811634349,240.27064393939398L780.382271468144,237.23704545454532L782.7257617728533,237.76443181818178L785.0692520775624,239.6666287878788L787.4127423822715,238.71102272727268L789.7562326869806,242.12776515151512L792.0997229916898,235.13200757575754L794.4432132963989,238.55776515151504L796.786703601108,238.69749999999993L799.1301939058171,237.92670454545447L801.4736842105262,231.5620075757575L803.8171745152355,225.36859848484846L806.1606648199446,218.03026515151518L808.5041551246537,218.65681818181815L810.8476454293628,217.61556818181816L813.1911357340721,215.1634469696969L815.5346260387812,220.3110984848484L817.8781163434903,219.79723484848483L820.2216066481994,221.27121212121207L822.5650969529087,217.98068181818175L824.9085872576178,216.94844696969693L827.2520775623269,219.16166666666663L829.5955678670359,202.2086742424242L831.9390581717452,204.85462121212126L834.2825484764543,204.36329545454547L836.6260387811634,204.4083712121212L838.9695290858725,206.16181818181818L841.3130193905818,206.0806818181818L843.6565096952909,207.2616666666666L846,205.66598484848478L846,286L843.6565096952909,286L841.3130193905818,286L838.9695290858725,286L836.6260387811634,286L834.2825484764543,286L831.9390581717452,286L829.5955678670359,286L827.2520775623269,286L824.9085872576178,286L822.5650969529087,286L820.2216066481994,286L817.8781163434903,286L815.5346260387812,286L813.1911357340721,286L810.8476454293628,286L808.5041551246537,286L806.1606648199446,286L803.8171745152355,286L801.4736842105262,286L799.1301939058171,286L796.786703601108,286L794.4432132963989,286L792.0997229916898,286L789.7562326869806,286L787.4127423822715,286L785.0692520775624,286L782.7257617728533,286L780.382271468144,286L778.0387811634349,286L775.6952908587258,286L773.3518005540167,286L771.0083102493074,286L768.6648199445983,286L766.3213296398892,286L763.9778393351801,286L761.6343490304708,286L759.2908587257617,286L756.9473684210526,286L754.6038781163435,286L752.2603878116344,286L749.9168975069252,286L747.5734072022161,286L745.229916897507,286L742.8864265927979,286L740.5429362880886,286L738.1994459833795,286L735.8559556786704,286L733.5124653739613,286L731.168975069252,286L728.8254847645429,286L726.4819944598338,286L724.1385041551247,286L721.7950138504154,286L719.4515235457063,286L717.1080332409972,286L714.7645429362881,286L712.421052631579,286L710.0775623268698,286L707.7340720221607,286L705.3905817174516,286L703.0470914127424,286L700.7036011080332,286L698.3601108033241,286L696.016620498615,286L693.6731301939059,286L691.3296398891966,286L688.9861495844875,286L686.6426592797784,286L684.2991689750693,286L681.95567867036,286L679.6121883656509,286L677.2686980609418,286L674.9252077562327,286L672.5817174515236,286L670.2382271468144,286L667.8947368421053,286L665.5512465373962,286L663.207756232687,286L660.8642659279778,286L658.5207756232687,286L656.1772853185596,286L653.8337950138504,286L651.4903047091412,286L649.1468144044321,286L646.803324099723,286L644.4598337950139,286L642.1163434903046,286L639.7728531855955,286L637.4293628808864,286L635.0858725761773,286L632.7423822714682,286L630.398891966759,286L628.0554016620499,286L625.7119113573408,286L623.3684210526316,286L621.0249307479224,286L618.6814404432133,286L616.3379501385042,286L613.994459833795,286L611.6509695290858,286L609.3074792243767,286L606.9639889196676,286L604.6204986149584,286L602.2770083102492,286L599.9335180055401,286L597.590027700831,286L595.2465373961219,286L592.9030470914128,286L590.5595567867036,286L588.2160664819945,286L585.8725761772854,286L583.5290858725762,286L581.185595567867,286L578.8421052631579,286L576.4986149584488,286L574.1551246537396,286L571.8116343490304,286L569.4681440443213,286L567.1246537396122,286L564.781163434903,286L562.4376731301938,286L560.0941828254847,286L557.7506925207756,286L555.4072022160665,286L553.0637119113574,286L550.7202216066482,286L548.3767313019391,286L546.03324099723,286L543.6897506925208,286L541.3462603878116,286L539.0027700831025,286L536.6592797783934,286L534.3157894736842,286L531.972299168975,286L529.6288088642659,286L527.2853185595568,286L524.9418282548476,286L522.5983379501384,286L520.2548476454293,286L517.9113573407202,286L515.5678670360111,286L513.224376731302,286L510.8808864265928,286L508.53739612188366,286L506.1939058171745,286L503.85041551246536,286L501.50692520775624,286L499.1634349030471,286L496.819944598338,286L494.47645429362876,286L492.13296398891964,286L489.7894736842105,286L487.4459833795014,286L485.1024930747922,286L482.7590027700831,286L480.415512465374,286L478.07202216066486,286L475.7285318559556,286L473.3850415512465,286L471.0415512465374,286L468.6980609418283,286L466.3545706371191,286L464.01108033240996,286L461.66759002770084,286L459.3240997229917,286L456.9806094182825,286L454.63711911357336,286L452.29362880886424,286L449.9501385041552,286L447.60664819944606,286L445.2631578947368,286L442.9196675900277,286L440.5761772853186,286L438.23268698060946,286L435.8891966759002,286L433.5457063711911,286L431.20221606648204,286L428.8587257617729,286L426.5152354570637,286L424.17174515235456,286L421.82825484764544,286L419.48476454293626,286L417.14127423822714,286L414.79778393351796,286L412.4542936288089,286L410.1108033240997,286L407.7673130193906,286L405.4238227146814,286L403.0803324099723,286L400.7368421052631,286L398.393351800554,286L396.0498614958449,286L393.70637119113576,286L391.36288088642664,286L389.01939058171746,286L386.67590027700834,286L384.33240997229916,286L381.98891966759004,286L379.64542936288086,286L377.30193905817174,286L374.9584487534626,286L372.6149584487535,286L370.2714681440443,286L367.9279778393352,286L365.584487534626,286L363.2409972299169,286L360.8975069252077,286L358.5540166204986,286L356.2105263157895,286L353.86703601108036,286L351.5235457063712,286L349.18005540166206,286L346.83656509695294,286L344.49307479224376,286L342.14958448753464,286L339.80609418282546,286L337.46260387811634,286L335.1191135734072,286L332.7756232686981,286L330.4321329639889,286L328.0886426592798,286L325.7451523545706,286L323.4016620498615,286L321.0581717451523,286L318.7146814404432,286L316.3711911357341,286L314.02770083102496,286L311.6842105263158,286L309.34072022160666,286L306.9972299168975,286L304.65373961218836,286L302.3102493074792,286L299.96675900277006,286L297.62326869806094,286L295.2797783933518,286L292.9362880886427,286L290.5927977839335,286L288.2493074792244,286L285.9058171745152,286L283.5623268698061,286L281.2188365650969,286L278.8753462603878,286L276.5318559556787,286L274.18836565096956,286L271.8448753462604,286L269.50138504155126,286L267.1578947368421,286L264.81440443213296,286L262.4709141274238,286L260.12742382271466,286L257.78393351800554,286L255.4404432132964,286L253.09695290858724,286L250.75346260387812,286L248.409972299169,286L246.06648199445982,286L243.7229916897507,286L241.37950138504155,286L239.03601108033243,286L236.69252077562325,286L234.34903047091416,286L232.00554016620498,286L229.66204986149586,286L227.31855955678668,286L224.9750692520776,286L222.6315789473684,286L220.2880886426593,286L217.9445983379501,286L215.60110803324102,286L213.25761772853184,286L210.91412742382272,286L208.57063711911357,286L206.22714681440445,286L203.8836565096953,286L201.54016620498615,286L199.196675900277,286L196.85318559556788,286L194.50969529085873,286L192.16620498614958,286L189.82271468144043,286L187.4792243767313,286L185.13573407202216,286L182.792243767313,286L180.44875346260386,286L178.10526315789474,286L175.7617728531856,286L173.41828254847647,286L171.07479224376732,286L168.73130193905817,286L166.38781163434905,286L164.0443213296399,286L161.70083102493075,286L159.3573407202216,286L157.01385041551248,286L154.67036011080333,286L152.32686980609418,286L149.98337950138503,286L147.6398891966759,286L145.29639889196676,286L142.9529085872576,286L140.60941828254846,286L138.26592797783934,286L135.9224376731302,286L133.57894736842104,286L131.2354570637119,286L128.89196675900277,286L126.54847645429362,286L124.2049861495845,286L121.86149584487535,286L119.51800554016621,286L117.17451523545708,286L114.83102493074793,286L112.4875346260388,286L110.14404432132964,286L107.80055401662051,286L105.45706371191136,286L103.11357340720222,286L100.77008310249307,286L98.42659279778394,286L96.08310249307479,286L93.73961218836565,286L91.3961218836565,286L89.05263157894737,286L86.70914127423823,286L84.36565096952909,286L82.02216066481995,286L79.6786703601108,286L77.33518005540166,286L74.99168975069252,286L72.64819944598338,286L70.30470914127423,286L67.9612188365651,286L65.61772853185595,286L63.27423822714681,286L60.930747922437675,286L58.58725761772854,286L56.2437673130194,286L53.900277008310255,286L51.55678670360111,286L49.21329639889197,286L46.86980609418283,286L44.526315789473685,286L42.18282548476454,286L39.8393351800554,286L37.49584487534626,286L35.152354570637115,286L32.80886426592797,286L30.465373961218837,286L28.1218836565097,286L25.778393351800556,286L23.434903047091414,286L21.09141274238227,286L18.74792243767313,286L16.404432132963986,286L14.06094182825485,286L11.717451523545707,286L9.373961218836564,286L7.030470914127425,286L4.686980609418282,286L2.343490304709141,286L0,286Z" stroke="rgba(0, 0, 0, 0)" fill="url(#area-gradient)" stroke-linecap="round" fill-opacity="0.1" offset="16"></path><path class="visx-line" d="M0,59.21484848484843L2.343490304709141,49.16295454545452L4.686980609418282,48L7.030470914127425,49.84359848484845L9.373961218836564,56.181249999999935L11.717451523545707,97.6193939393938L14.06094182825485,92.39511363636363L16.404432132963986,95.40617424242407L18.74792243767313,68.07223484848483L21.09141274238227,72.03439393939391L23.434903047091414,53.936477272727316L25.778393351800556,87.21140151515141L28.1218836565097,85.66079545454554L30.465373961218837,94.23420454545439L32.80886426592797,81.21632575757567L35.152354570637115,82.3928030303029L37.49584487534626,81.08109848484841L39.8393351800554,76.29405303030305L42.18282548476454,84.10117424242421L44.526315789473685,81.49579545454543L46.86980609418283,83.69549242424236L49.21329639889197,90.45234848484833L51.55678670360111,98.86799242424237L53.900277008310255,99.73795454545453L56.2437673130194,103.73617424242417L58.58725761772854,101.8339772727272L60.930747922437675,103.36655303030298L63.27423822714681,107.26560606060596L65.61772853185595,114.65352272727267L67.9612188365651,113.54015151515154L70.30470914127423,103.22681818181819L72.64819944598338,98.89954545454549L74.99168975069252,99.85515151515149L77.33518005540166,103.41162878787881L79.6786703601108,96.03272727272713L82.02216066481995,106.85992424242433L84.36565096952909,108.0724621212121L86.70914127423823,101.9466666666666L89.05263157894737,104.56556818181807L91.3961218836565,107.41435606060614L93.73961218836565,106.90049242424237L96.08310249307479,118.56159090909088L98.42659279778394,125.29140151515142L100.77008310249307,117.73670454545446L103.11357340720222,110.87166666666667L105.45706371191136,105.3273484848484L107.80055401662051,110.69587121212119L110.14404432132964,108.48715909090902L112.4875346260388,99.81007575757577L114.83102493074793,95.19882575757578L117.17451523545708,96.2941666666666L119.51800554016621,91.38541666666654L121.86149584487535,87.79738636363635L124.2049861495845,87.3285984848485L126.54847645429362,84.44374999999997L128.89196675900277,87.79738636363635L131.2354570637119,78.33147727272735L133.57894736842104,75.99655303030289L135.9224376731302,83.77212121212119L138.26592797783934,82.3296969696969L140.60941828254846,82.66325757575763L142.9529085872576,82.57310606060608L145.29639889196676,78.83181818181822L147.6398891966759,86.26481060606055L149.98337950138503,88.16250000000007L152.32686980609418,92.95856060606062L154.67036011080333,97.98901515151519L157.01385041551248,93.16140151515145L159.3573407202216,97.04242424242432L161.70083102493075,94.69848484848481L164.0443213296399,93.61666666666659L166.38781163434905,95.6901515151514L168.73130193905817,95.47829545454532L171.07479224376732,92.84136363636355L173.41828254847647,99.13393939393931L175.7617728531856,103.89393939393929L178.10526315789474,102.64083333333323L180.44875346260386,117.59246212121207L182.792243767313,116.5962878787879L185.13573407202216,111.99405303030292L187.4792243767313,110.60121212121209L189.82271468144043,117.47526515151509L192.16620498614958,124.65583333333339L194.50969529085873,117.48428030303035L196.85318559556788,122.49670454545443L199.196675900277,121.89268939393934L201.54016620498615,119.67946969696969L203.8836565096953,110.71840909090912L206.22714681440445,119.85075757575763L208.57063711911357,125.6610227272727L210.91412742382272,126.24249999999998L213.25761772853184,143.9257196969698L215.60110803324102,164.65155303030303L217.9445983379501,156.43874999999997L220.2880886426593,156.8354166666666L222.6315789473684,161.02295454545447L224.9750692520776,161.56837121212115L227.31855955678668,168.5956818181818L229.66204986149586,156.42522727272723L232.00554016620498,212.59412878787873L234.34903047091416,207.8341287878788L236.69252077562325,211.61147727272734L239.03601108033243,215.83056818181817L241.37950138504155,219.45916666666662L243.7229916897507,213.5812878787878L246.06648199445982,217.86799242424246L248.409972299169,242.10522727272726L250.75346260387812,233.92397727272723L253.09695290858724,230.7867045454545L255.4404432132964,245.68424242424243L257.78393351800554,252.80170454545456L260.12742382271466,254.0367803030303L262.4709141274238,284.2195075757576L264.81440443213296,286L267.1578947368421,272.33303030303034L269.50138504155126,262.2090151515152L271.8448753462604,253.02257575757574L274.18836565096956,248.97026515151506L276.5318559556787,247.33852272727273L278.8753462603878,252.21121212121216L281.2188365650969,213.0403787878787L283.5623268698061,215.01920454545441L285.9058171745152,227.46011363636364L288.2493074792244,222.3890909090909L290.5927977839335,214.75325757575752L292.9362880886427,217.0160606060605L295.2797783933518,219.84681818181812L297.62326869806094,229.89420454545444L299.96675900277006,221.75803030303027L302.3102493074792,211.625L304.65373961218836,210.5521969696969L306.9972299168975,210.1645454545455L309.34072022160666,208.67253787878784L311.6842105263158,205.8958712121212L314.02770083102496,204.71488636363637L316.3711911357341,202.97496212121212L318.7146814404432,170.2409469696969L321.0581717451523,152.9859469696969L323.4016620498615,162.82598484848484L325.7451523545706,188.7535606060606L328.0886426592798,214.7487499999999L330.4321329639889,200.14420454545444L332.7756232686981,199.19310606060606L335.1191135734072,189.47477272727275L337.46260387811634,200.19378787878782L339.80609418282546,196.63280303030305L342.14958448753464,202.2988257575757L344.49307479224376,203.90803030303024L346.83656509695294,200.9330303030303L349.18005540166206,208.4922348484848L351.5235457063712,200.45522727272723L353.86703601108036,199.81064393939394L356.2105263157895,205.82825757575756L358.5540166204986,217.45780303030295L360.8975069252077,227.5908333333333L363.2409972299169,220.05867424242416L365.584487534626,222.06905303030297L367.9279778393352,223.0201515151515L370.2714681440443,225.86443181818174L372.6149584487535,227.42405303030307L374.9584487534626,236.13719696969693L377.30193905817174,236.083106060606L379.64542936288086,246.96439393939391L381.98891966759004,243.8812121212121L384.33240997229916,250.8003409090909L386.67590027700834,216.94393939393944L389.01939058171746,216.81772727272713L391.36288088642664,217.82291666666669L393.70637119113576,212.8690909090909L396.0498614958449,223.83602272727268L398.393351800554,223.65121212121198L400.7368421052631,224.42200757575762L403.0803324099723,225.81034090909088L405.4238227146814,221.05935606060604L407.7673130193906,216.39401515151508L410.1108033240997,216.86280303030298L412.4542936288089,221.84818181818179L414.79778393351796,218.10238636363633L417.14127423822714,217.04761363636356L419.48476454293626,217.87249999999992L421.82825484764544,213.0854545454545L424.17174515235456,212.32367424242426L426.5152354570637,213.98246212121208L428.8587257617729,220.86553030303028L431.20221606648204,221.3027651515152L433.5457063711911,221.22613636363636L435.8891966759002,220.27503787878783L438.23268698060946,216.4210606060606L440.5761772853186,217.8589772727272L442.9196675900277,217.23693181818186L445.2631578947368,225.11617424242417L447.60664819944606,227.2482575757576L449.9501385041552,231.2870454545454L452.29362880886424,236.52935606060603L454.63711911357336,233.96454545454534L456.9806094182825,235.71799242424242L459.3240997229917,235.67291666666668L461.66759002770084,233.013446969697L464.01108033240996,230.76867424242425L466.3545706371191,234.1087878787878L468.6980609418283,233.6670454545454L471.0415512465374,234.95621212121208L473.3850415512465,238.7335606060606L475.7285318559556,236.3986363636363L478.07202216066486,242.1953787878787L480.415512465374,239.19333333333327L482.7590027700831,237.87261363636352L485.1024930747922,237.8590909090909L487.4459833795014,237.3271969696969L489.7894736842105,240.13541666666663L492.13296398891964,236.36257575757574L494.47645429362876,233.73916666666662L496.819944598338,234.36121212121205L499.1634349030471,235.956893939394L501.50692520775624,232.88272727272727L503.85041551246536,232.66636363636363L506.1939058171745,232.66636363636363L508.53739612188366,235.190606060606L510.8808864265928,238.96795454545452L513.224376731302,236.10113636363624L515.5678670360111,235.0598863636363L517.9113573407202,232.6798863636363L520.2548476454293,234.65420454545455L522.5983379501384,234.96522727272722L524.9418282548476,237.34973484848481L527.2853185595568,236.8493939393939L529.6288088642659,235.76757575757568L531.972299168975,236.98011363636363L534.3157894736842,236.2724242424243L536.6592797783934,235.07791666666668L539.0027700831025,233.9465151515151L541.3462603878116,235.22666666666663L543.6897506925208,233.00443181818179L546.03324099723,232.7339772727273L548.3767313019391,233.9375L550.7202216066482,234.0456818181818L553.0637119113574,232.6167803030303L555.4072022160665,233.12162878787882L557.7506925207756,236.47977272727266L560.0941828254847,243.95784090909086L562.4376731301938,243.66484848484845L564.781163434903,243.83613636363634L567.1246537396122,245.13882575757572L569.4681440443213,244.90443181818182L571.8116343490304,253.8925378787878L574.1551246537396,258.27840909090907L576.4986149584488,262.62821969696967L578.8421052631579,268.9207954545453L581.185595567867,266.0179166666667L583.5290858725762,267.7217803030302L585.8725761772854,263.6289015151514L588.2160664819945,264.3501136363636L590.5595567867036,261.636553030303L592.9030470914128,267.70825757575756L595.2465373961219,267.56852272727264L597.590027700831,279.1665151515151L599.9335180055401,275.5469318181818L602.2770083102492,269.3985984848485L604.6204986149584,268.9298106060606L606.9639889196676,267.9606818181818L609.3074792243767,269.62848484848485L611.6509695290858,273.64924242424246L613.994459833795,279.44147727272724L616.3379501385042,276.78200757575746L618.6814404432133,263.0293939393939L621.0249307479224,259.73435606060605L623.3684210526316,262.9978409090909L625.7119113573408,260.892803030303L628.0554016620499,259.04469696969693L630.398891966759,261.582462121212L632.7423822714682,262.1368939393939L635.0858725761773,248.19045454545457L637.4293628808864,250.09715909090912L639.7728531855955,248.4654166666666L642.1163434903046,248.3031439393939L644.4598337950139,247.62700757575752L646.803324099723,253.5003787878788L649.1468144044321,252.8738257575757L651.4903047091412,255.1591666666667L653.8337950138504,251.7559469696969L656.1772853185596,251.89568181818186L658.5207756232687,249.45257575757572L660.8642659279778,244.3499999999999L663.207756232687,243.39890151515152L665.5512465373962,244.49875L667.8947368421053,243.52962121212116L670.2382271468144,246.36488636363634L672.5817174515236,248.1183333333333L674.9252077562327,247.71715909090904L677.2686980609418,246.64886363636356L679.6121883656509,246.74352272727265L681.95567867036,247.0815909090909L684.2991689750693,248.6727651515151L686.6426592797784,247.1356818181818L688.9861495844875,247.71715909090904L691.3296398891966,248.55556818181816L693.6731301939059,251.21954545454537L696.016620498615,248.15890151515146L698.3601108033241,248.10030303030305L700.7036011080332,236.88545454545454L703.0470914127424,239.27897727272716L705.3905817174516,238.65242424242425L707.7340720221607,236.08310606060607L710.0775623268698,235.97041666666667L712.421052631579,236.8764393939394L714.7645429362881,236.9395454545454L717.1080332409972,227.18515151515152L719.4515235457063,229.74094696969692L721.7950138504154,228.27147727272728L724.1385041551247,231.14731060606064L726.4819944598338,229.7860227272727L728.8254847645429,229.93928030303016L731.168975069252,228.63659090909087L733.5124653739613,232.49056818181816L735.8559556786704,231.26000000000002L738.1994459833795,233.7571969696969L740.5429362880886,232.41393939393942L742.8864265927979,236.13719696969693L745.229916897507,234.6947727272727L747.5734072022161,234.17189393939395L749.9168975069252,228.8980303030303L752.2603878116344,223.27708333333337L754.6038781163435,221.94734848484848L756.9473684210526,212.15689393939397L759.2908587257617,213.7976515151515L761.6343490304708,213.20715909090907L763.9778393351801,213.34238636363634L766.3213296398892,215.1048484848485L768.6648199445983,212.6932954545454L771.0083102493074,225.5804545454545L773.3518005540167,239.526893939394L775.6952908587258,238.9093560606061L778.0387811634349,240.27064393939398L780.382271468144,237.23704545454532L782.7257617728533,237.76443181818178L785.0692520775624,239.6666287878788L787.4127423822715,238.71102272727268L789.7562326869806,242.12776515151512L792.0997229916898,235.13200757575754L794.4432132963989,238.55776515151504L796.786703601108,238.69749999999993L799.1301939058171,237.92670454545447L801.4736842105262,231.5620075757575L803.8171745152355,225.36859848484846L806.1606648199446,218.03026515151518L808.5041551246537,218.65681818181815L810.8476454293628,217.61556818181816L813.1911357340721,215.1634469696969L815.5346260387812,220.3110984848484L817.8781163434903,219.79723484848483L820.2216066481994,221.27121212121207L822.5650969529087,217.98068181818175L824.9085872576178,216.94844696969693L827.2520775623269,219.16166666666663L829.5955678670359,202.2086742424242L831.9390581717452,204.85462121212126L834.2825484764543,204.36329545454547L836.6260387811634,204.4083712121212L838.9695290858725,206.16181818181818L841.3130193905818,206.0806818181818L843.6565096952909,207.2616666666666L846,205.66598484848478" stroke="rgba(239, 83, 80, 1)" fill="rgba(0, 0, 0, 0)" stroke-width="2" pointer-events="none" stroke-linecap="round"></path><g><text x="846" y="48" width="100" text-anchor="end" fill="#EF5350" font-size="12px" dy="-1rem" dx="-0.5rem">$1,336.33</text></g><g><text x="846" width="100" dy="1.5rem" dx="-0.5rem" font-size="12px" fill="#EF5350" text-anchor="end" y="286">$808.33</text></g><rect x="0" y="0" width="846" height="318" fill="transparent"></rect></svg></svg>